<svg xmlns="http://www.w3.org/2000/svg" xmlns:xlink="http://www.w3.org/1999/xlink" width="36" height="36" viewBox="0 0 36 36">
  <defs>
    <clipPath id="clip-path">
      <rect id="Rectangle_1453" data-name="Rectangle 1453" width="36" height="36" fill="#005eb8"/>
    </clipPath>
  </defs>
  <g id="twitter_icon_white_36" clip-path="url(#clip-path)">
    <path id="Path_4199" data-name="Path 4199" d="M86.321,127.7c13.585,0,21.015-11.255,21.015-21.015,0-.32,0-.638-.022-.955A15.028,15.028,0,0,0,111,101.909a14.743,14.743,0,0,1-4.242,1.162A7.412,7.412,0,0,0,110,98.986a14.8,14.8,0,0,1-4.69,1.793,7.393,7.393,0,0,0-12.587,6.736A20.969,20.969,0,0,1,77.506,99.8a7.392,7.392,0,0,0,2.287,9.86,7.331,7.331,0,0,1-3.352-.924v.094a7.389,7.389,0,0,0,5.926,7.24,7.374,7.374,0,0,1-3.335.127,7.394,7.394,0,0,0,6.9,5.129,14.82,14.82,0,0,1-9.173,3.168A15.034,15.034,0,0,1,75,124.385,20.91,20.91,0,0,0,86.321,127.7" transform="translate(-75 -95.45)" fill="#005eb8"/>
  </g>
</svg>
